HIERARCHY
ROOT Hips
{
	OFFSET 0.000000 0.000000 0.000000
	CHANNELS 6 Xposition Yposition Zposition Xrotation Yrotation Zrotation
	JOINT LeftUpLeg_virtual
	{
		OFFSET 0.000000 0.000000 0.000000
		CHANNELS 3 Xrotation Yrotation Zrotation
		JOINT LeftUpLeg
		{
			OFFSET 15.427100 -6.655098 0.678600
			CHANNELS 3 Xrotation Yrotation Zrotation
			JOINT LeftLeg
			{
				OFFSET 4.081073 -39.591068 13.024000
				CHANNELS 3 Xrotation Yrotation Zrotation
				JOINT LeftFoot
				{
					OFFSET -4.081074 -37.707932 -15.979700
					CHANNELS 3 Xrotation Yrotation Zrotation
					JOINT LeftToeBase
					{
						OFFSET 5.346399 -15.068900 20.645000
						CHANNELS 3 Xrotation Yrotation Zrotation
						JOINT LeftToe_End
						{
							OFFSET 2.754700 0.931300 11.300900
							CHANNELS 3 Xrotation Yrotation Zrotation
							End Site
							{
								OFFSET 0 0 0
							}
						}
					}
				}
			}
		}
	}
	JOINT RightUpLeg_virtual
	{
		OFFSET 0.000000 0.000000 0.000000
		CHANNELS 3 Xrotation Yrotation Zrotation
		JOINT RightUpLeg
		{
			OFFSET -15.569500 -6.655098 0.678600
			CHANNELS 3 Xrotation Yrotation Zrotation
			JOINT RightLeg
			{
				OFFSET -4.081825 -39.591045 13.023800
				CHANNELS 3 Xrotation Yrotation Zrotation
				JOINT RightFoot
				{
					OFFSET 4.081824 -37.707954 -15.979600
					CHANNELS 3 Xrotation Yrotation Zrotation
					JOINT RightToeBase
					{
						OFFSET -5.346400 -15.068900 20.645000
						CHANNELS 3 Xrotation Yrotation Zrotation
						JOINT RightToe_End
						{
							OFFSET -2.754700 0.931300 11.300900
							CHANNELS 3 Xrotation Yrotation Zrotation
							End Site
							{
								OFFSET 0 0 0
							}
						}
					}
				}
			}
		}
	}
	JOINT Spine_virtual
	{
		OFFSET 0.000000 0.000000 0.000000
		CHANNELS 3 Xrotation Yrotation Zrotation
		JOINT Spine
		{
			OFFSET -0.279200 12.230698 -2.892100
			CHANNELS 3 Xrotation Yrotation Zrotation
			JOINT Spine1
			{
				OFFSET -0.232667 10.192268 -1.242267
				CHANNELS 3 Xrotation Yrotation Zrotation
				JOINT Spine1_split
				{
					OFFSET -0.232667 10.192268 -1.242267
					CHANNELS 3 Xrotation Yrotation Zrotation
					JOINT Spine2
					{
						OFFSET -0.232667 10.192268 -1.242267
						CHANNELS 3 Xrotation Yrotation Zrotation
						JOINT Neck_virtual
						{
							OFFSET 0.000000 0.000000 0.000000
							CHANNELS 3 Xrotation Yrotation Zrotation
							JOINT Neck
							{
								OFFSET -0.418800 17.814194 8.416900
								CHANNELS 3 Xrotation Yrotation Zrotation
								JOINT Head
								{
									OFFSET 0.000000 7.031097 3.806800
									CHANNELS 3 Xrotation Yrotation Zrotation
									JOINT HeadTop_End
									{
										OFFSET 0.000000 24.646606 12.978600
										CHANNELS 3 Xrotation Yrotation Zrotation
										End Site
										{
											OFFSET 0 0 0
										}
									}
								}
							}
						}
						JOINT LeftShoulder_virtual
						{
							OFFSET 0.000000 0.000000 0.000000
							CHANNELS 3 Xrotation Yrotation Zrotation
							JOINT LeftShoulder
							{
								OFFSET 8.476499 7.247704 -3.868750
								CHANNELS 3 Xrotation Yrotation Zrotation
								JOINT LeftShoulder_split
								{
									OFFSET 8.476499 7.247704 -3.868750
									CHANNELS 3 Xrotation Yrotation Zrotation
									JOINT LeftArm
									{
										OFFSET 9.308998 -2.777710 0.208600
										CHANNELS 3 Xrotation Yrotation Zrotation
										JOINT LeftForeArm
										{
											OFFSET 29.972298 0.000000 0.000000
											CHANNELS 3 Xrotation Yrotation Zrotation
											JOINT LeftHand
											{
												OFFSET 26.026505 0.000000 0.000000
												CHANNELS 3 Xrotation Yrotation Zrotation
												End Site
												{
													OFFSET 0 0 0
												}
											}
										}
									}
								}
							}
						}
						JOINT RightShoulder_virtual
						{
							OFFSET 0.000000 0.000000 0.000000
							CHANNELS 3 Xrotation Yrotation Zrotation
							JOINT RightShoulder
							{
								OFFSET -7.570500 7.247704 -3.868750
								CHANNELS 3 Xrotation Yrotation Zrotation
								JOINT RightShoulder_split
								{
									OFFSET -7.570500 7.247704 -3.868750
									CHANNELS 3 Xrotation Yrotation Zrotation
									JOINT RightArm
									{
										OFFSET -9.308998 -2.777710 0.208500
										CHANNELS 3 Xrotation Yrotation Zrotation
										JOINT RightForeArm
										{
											OFFSET -29.972300 0.000000 0.000000
											CHANNELS 3 Xrotation Yrotation Zrotation
											JOINT RightHand
											{
												OFFSET -26.026505 0.000000 0.000000
												CHANNELS 3 Xrotation Yrotation Zrotation
												End Site
												{
													OFFSET 0 0 0
												}
											}
										}
									}
								}
							}
						}
					}
				}
			}
		}
	}
}
MOTION
Frames: 6
Frame Time: 0.03333333
14.753396 79.110924 3.139629 0.000000 0.000000 0.000000 9.432338 -2.167856 -10.202276 -51.003939 -10.362432 31.677458 52.313659 -4.177244 -5.348086 -3.059139 2.471637 -14.889836 -2.228486 -0.412020 0.775822 0.000000 0.000000 0.000000 10.043488 -0.938748 -10.932350 -24.085161 -23.567679 2.054247 42.182231 7.149048 1.921824 -21.992757 -19.210723 -5.446498 1.108952 0.609566 -0.067837 0.000000 0.000000 0.000000 8.248548 0.318106 -11.346564 7.713976 -3.382343 -7.346067 5.383455 -1.735065 -6.269702 1.150451 1.190305 0.518034 0.000000 0.000000 0.000000 7.767130 -1.807663 -6.397528 -6.822673 0.243411 -6.895024 -29.489212 -12.395167 13.110783 0.000000 0.000000 0.000000 6.624539 -1.544097 -6.094472 0.811508 -5.553918 -7.978251 -0.739301 -4.164608 0.525881 -26.826410 7.601207 -19.294166 2.499240 -59.375640 2.451760 0.000000 0.000000 0.000000 6.367115 -1.889528 -6.057097 1.857204 -2.045781 3.950703 6.480258 3.954747 -3.199689 24.773429 -8.909726 81.665710 9.106300 80.371300 -8.224888 0.000000 0.000000 0.000000 
14.857430 78.342926 2.362259 0.000000 0.000000 0.000000 9.154793 -3.366806 -9.501253 -51.105839 -10.324044 31.317220 53.520413 -3.224026 -5.257860 -3.776049 3.020527 -15.001102 -1.783631 -0.314188 0.795960 0.000000 0.000000 0.000000 9.657762 -1.949899 -10.214473 -25.913207 -21.856158 2.215589 44.032194 6.247647 1.784851 -22.480646 -19.730202 -6.002685 1.126756 0.697016 -0.087843 0.000000 0.000000 0.000000 7.939710 -1.000045 -10.744864 8.523746 -2.971402 -6.873344 5.938914 -1.480916 -5.984164 1.263910 1.166584 0.607430 0.000000 0.000000 0.000000 8.052993 -1.581535 -6.129677 -5.952751 0.030169 -6.717311 -28.586336 -12.023624 12.784772 0.000000 0.000000 0.000000 7.033359 -1.370025 -5.979472 0.849288 -5.668950 -8.849249 -0.646082 -4.207553 0.730535 -24.023010 12.041599 -22.850616 2.029878 -57.050781 2.121294 0.000000 0.000000 0.000000 6.931697 -1.629318 -5.772514 1.853336 -0.893040 4.700898 6.113968 3.552042 -3.136796 21.727143 -5.884690 80.093701 6.644916 76.520699 -5.829345 0.000000 0.000000 0.000000 
14.796910 77.930511 1.650837 0.000000 0.000000 0.000000 8.871505 -4.416524 -8.884258 -50.854874 -10.226090 30.942331 54.067566 -2.142415 -5.249295 -4.440281 3.555813 -15.062165 -1.470508 -0.204630 0.639918 0.000000 0.000000 0.000000 9.175318 -2.991060 -9.543498 -27.458793 -20.299940 2.410980 45.333055 5.423773 1.740582 -22.622551 -20.017980 -6.358388 1.430341 0.790112 -0.094314 0.000000 0.000000 0.000000 7.594683 -2.522287 -10.152830 9.168929 -2.628251 -6.541510 6.357389 -1.272980 -5.736983 1.390132 1.166360 0.535228 0.000000 0.000000 0.000000 8.183359 -1.398217 -5.872983 -5.243424 -0.040799 -6.584457 -27.103907 -11.486072 12.600796 0.000000 0.000000 0.000000 7.276992 -1.215997 -5.886654 0.890475 -5.720403 -9.665107 -0.755750 -3.900784 0.966976 -21.196785 15.214402 -26.892220 1.469210 -53.702181 1.710052 0.000000 0.000000 0.000000 7.376932 -1.398085 -5.536818 1.806177 0.177477 5.491471 5.670305 3.332022 -2.976673 18.720258 -3.062263 78.268647 5.239184 72.890747 -4.521125 0.000000 0.000000 0.000000 
14.626994 77.859863 1.089317 0.000000 0.000000 0.000000 8.481775 -5.372961 -8.379067 -50.287951 -10.199599 30.607232 54.192698 -1.157475 -5.269300 -4.853858 3.897138 -15.172087 -1.294975 -0.098087 0.329183 0.000000 0.000000 0.000000 8.664632 -4.030229 -8.990420 -28.633770 -18.870727 2.772287 46.023529 4.759566 1.695208 -22.182475 -20.060926 -6.352115 1.512821 0.869505 -0.071018 0.000000 0.000000 0.000000 7.191034 -4.216273 -9.588886 9.568236 -2.346563 -6.343943 6.581648 -1.114950 -5.542401 1.409820 1.274212 0.349036 0.000000 0.000000 0.000000 8.102220 -1.251915 -5.661648 -4.648041 -0.034215 -6.489163 -25.020786 -10.893952 12.606402 0.000000 0.000000 0.000000 7.322111 -1.092189 -5.822326 0.931480 -5.664631 -10.419167 -0.956690 -3.476009 1.127350 -18.449507 16.990975 -31.005466 0.972645 -49.809868 1.341179 0.000000 0.000000 0.000000 7.632819 -1.193103 -5.370053 1.722853 1.105353 6.349185 5.358749 3.337143 -2.758143 15.808128 -0.480257 76.441333 4.305784 69.487271 -3.700097 0.000000 0.000000 0.000000 
14.398521 78.086884 0.618332 0.000000 0.000000 0.000000 7.906711 -6.335113 -8.023439 -49.317333 -10.267725 30.348638 54.064967 -0.354890 -5.266325 -5.036523 4.004047 -15.138204 -1.204320 -0.020624 -0.002144 0.000000 0.000000 0.000000 8.097627 -5.122488 -8.561323 -29.325035 -17.463134 3.383026 45.931687 4.228274 1.586980 -21.176127 -19.901153 -6.193981 1.254206 0.903634 0.000615 0.000000 0.000000 0.000000 6.680685 -6.020448 -9.090505 9.659190 -2.105136 -6.249785 6.596434 -1.006679 -5.406570 1.426461 1.532137 0.151250 0.000000 0.000000 0.000000 7.789590 -1.136574 -5.511957 -4.053930 -0.006698 -6.381655 -22.248750 -10.343913 12.811467 0.000000 0.000000 0.000000 7.178988 -1.002729 -5.784900 0.967777 -5.508950 -11.142227 -1.399667 -3.002112 1.090933 -15.904417 17.447790 -34.780723 0.676083 -46.014209 1.104698 0.000000 0.000000 0.000000 7.641270 -1.019796 -5.282380 1.632730 1.848328 7.242661 5.169549 3.487880 -2.609434 13.088424 1.926718 74.770054 3.637805 66.414075 -3.126499 0.000000 0.000000 0.000000 
14.082616 78.594078 0.294014 0.000000 0.000000 0.000000 7.100152 -7.157050 -7.805131 -47.796571 -10.286801 30.241871 53.616633 0.318604 -5.229146 -5.179367 4.010782 -14.852391 -1.046773 0.034851 -0.270322 0.000000 0.000000 0.000000 7.410537 -6.188259 -8.251875 -29.487081 -16.076491 4.191667 45.040497 3.751874 1.402774 -19.736076 -19.589379 -6.076619 0.876802 0.875952 0.113217 0.000000 0.000000 0.000000 5.958229 -7.773222 -8.669385 9.440613 -1.908469 -6.218859 6.398921 -0.960873 -5.325376 1.328195 1.838975 0.017152 0.000000 0.000000 0.000000 7.269151 -1.064579 -5.424176 -3.371661 -0.002343 -6.214181 -18.730991 -9.864925 13.222017 0.000000 0.000000 0.000000 6.858290 -0.970810 -5.764702 0.992224 -5.270906 -11.830589 -1.998899 -2.601959 0.843079 -13.820492 16.744130 -37.890799 0.644685 -42.828950 1.036289 0.000000 0.000000 0.000000 7.394490 -0.900812 -5.269459 1.545040 2.357345 8.138268 5.031812 3.568014 -2.510336 10.736674 4.137134 73.236294 3.128394 64.030886 -2.694891 0.000000 0.000000 0.000000 
